<svg xmlns="http://www.w3.org/2000/svg" width="101.565" height="39.634" viewBox="0 0 101.565 39.634"><defs><style>.a,.d{fill:#69be28;}.b{fill:#004f99;}.c{fill:#fff;}.d{font-size:12px;font-family:Roboto-Bold, Roboto;font-weight:700;}</style></defs><g transform="translate(-216 -1876.042)"><path class="a" d="M104.728,181.364a1.153,1.153,0,0,1,.006.139,3.19,3.19,0,0,1-3.17,3.17,2.949,2.949,0,0,1-.788-.1,3.051,3.051,0,0,1-1.391-.778,3.132,3.132,0,0,1-.991-2.291.665.665,0,0,1,.005-.1,3.167,3.167,0,0,1,6.329-.037Z" transform="translate(148.907 1697.709)"/><path class="a" d="M246.1,181.364a1.153,1.153,0,0,1,.006.139,3.19,3.19,0,0,1-3.17,3.17,2.949,2.949,0,0,1-.788-.1,3.051,3.051,0,0,1-1.391-.778,3.132,3.132,0,0,1-.991-2.291.663.663,0,0,1,.005-.1,3.167,3.167,0,0,1,6.329-.037Z" transform="translate(68.262 1697.709)"/><path class="b" d="M145.789,193.092a7.423,7.423,0,0,0-5.6,2.555,7.437,7.437,0,0,0-13.043,4.623c0,.032,0,7.163,0,7.195h3.74c0-.039,0-7.176.007-7.214a3.707,3.707,0,0,1,7.387-.049c.005.055.009,7.224.011,7.279h3.8c0-.037,0-7.189.007-7.227a3.707,3.707,0,0,1,7.389-.037c0,.05.007,7.312.01,7.362h3.74c0-.046,0-7.3,0-7.349A7.449,7.449,0,0,0,145.789,193.092Z" transform="translate(132.51 1689.29)"/><path class="b" d="M44.178,193.092a7.423,7.423,0,0,0-5.6,2.555,7.437,7.437,0,0,0-13.043,4.623c0,.032,0,7.163,0,7.195h3.74c0-.039,0-7.176.007-7.214a3.707,3.707,0,0,1,7.387-.049c0,.055.008,7.224.011,7.279h3.8c0-.037,0-7.189.007-7.227a3.707,3.707,0,0,1,7.389-.037c0,.05.008,7.312.01,7.362h3.74c0-.046,0-7.3,0-7.349A7.449,7.449,0,0,0,44.178,193.092Z" transform="translate(190.472 1689.29)"/><g transform="translate(288.539 1882.865)"><path class="b" d="M201.4,194.214a7.012,7.012,0,0,0-7.006,7c0,.152.006.3.018.445v11.657h3.515v-6.028a6.9,6.9,0,0,0,3.473.926,7,7,0,1,0,0-14Zm0,10.485a3.5,3.5,0,0,1-3.473-3.128c-.012-.117-.018-.234-.018-.357A3.488,3.488,0,1,1,201.4,204.7Z" transform="translate(-194.394 -194.214)"/></g><path class="b" d="M245.062,200.51c-.006-.133-.024-7.2-.024-7.2h-3.185s.018,7.317.018,7.365a3.19,3.19,0,0,1-3.17,3.17,2.949,2.949,0,0,1-.788-.1,3.053,3.053,0,0,1-1.391-.778,3.134,3.134,0,0,1-.991-2.291c0-.032.053-7.356.053-7.356l-3.248.022s0,7.147,0,7.334a6.355,6.355,0,0,0,6.366,6.366,11.961,11.961,0,0,0,3.191-.857,3.162,3.162,0,0,1-5.434,2.1h-3.7a6.328,6.328,0,0,0,12.273-2.214C245.033,205.846,245.062,200.51,245.062,200.51Z" transform="translate(72.503 1689.169)"/><path class="b" d="M103.687,200.51c-.006-.133-.024-7.2-.024-7.2h-3.186s.018,7.317.018,7.365a3.19,3.19,0,0,1-3.17,3.17,2.949,2.949,0,0,1-.788-.1,3.053,3.053,0,0,1-1.391-.778,3.134,3.134,0,0,1-.991-2.291c0-.032.053-7.356.053-7.356l-3.248.022s0,7.147,0,7.334a6.355,6.355,0,0,0,6.366,6.366,11.961,11.961,0,0,0,3.191-.857,3.162,3.162,0,0,1-5.434,2.1h-3.7a6.328,6.328,0,0,0,12.273-2.214C103.658,205.846,103.687,200.51,103.687,200.51Z" transform="translate(153.148 1689.169)"/><g transform="translate(289.498 1889.743)"><path class="c" d="M196.643,210.226v.357c-.012-.117-.018-.235-.018-.357Z" transform="translate(-196.625 -210.226)"/></g><text class="d" transform="translate(275.382 1912.676)"><tspan x="0" y="0">dreams</tspan></text></g></svg>