<?xml version="1.0" encoding="utf-8"?>
<!-- Generator: Adobe Illustrator 23.0.6, SVG Export Plug-In . SVG Version: 6.00 Build 0)  -->
<svg version="1.1" id="Layer_1" xmlns="http://www.w3.org/2000/svg" xmlns:xlink="http://www.w3.org/1999/xlink" x="0px" y="0px"
	 viewBox="0 0 612 792" style="enable-background:new 0 0 612 792;" xml:space="preserve">
<style type="text/css">
	.st0{fill:#F1F5FB;}
	.st1{fill:#2D2C3E;}
	.st2{opacity:0.83;}
	.st3{fill:#C1CBDA;}
	.st4{opacity:0.67;}
	.st5{fill:#ECAAAB;}
	.st6{fill:#EEA9AA;}
	.st7{fill:#EDABAB;}
	.st8{fill:#5C58A6;}
	.st9{fill:#F6B34E;}
	.st10{fill:#D79F42;}
	.st11{fill:#233432;}
	.st12{fill:url(#SVGID_1_);}
	.st13{fill:url(#SVGID_2_);}
	.st14{fill:#F0AAAE;}
	.st15{fill:#E5ECF6;}
	.st16{fill:#F6A9A6;}
	.st17{fill:#423F63;}
	.st18{fill:url(#SVGID_3_);}
	.st19{fill:url(#SVGID_4_);}
	.st20{fill:url(#SVGID_5_);}
	.st21{fill:#D89293;}
	.st22{fill:#F7A4A5;}
	.st23{fill:#4D4D8F;}
	.st24{fill:#403C63;}
	.st25{fill:#EDAAAD;}
	.st26{fill:#22223B;}
	.st27{fill:#5D57A5;}
	.st28{fill:#403C62;}
	.st29{fill:#221F3F;}
	.st30{fill:url(#SVGID_6_);}
	.st31{fill:url(#SVGID_7_);}
	.st32{fill:#FFFFFF;}
	.st33{font-family:'Roboto-Bold';}
	.st34{font-size:31px;}
	.st35{fill:url(#SVGID_8_);}
	.st36{clip-path:url(#SVGID_10_);}
	.st37{clip-path:url(#SVGID_12_);}
	.st38{fill:url(#SVGID_15_);}
	.st39{fill:url(#SVGID_16_);}
	.st40{fill:url(#SVGID_17_);}
	.st41{fill:url(#SVGID_18_);}
	.st42{fill:url(#SVGID_19_);}
	.st43{fill:url(#SVGID_20_);}
	.st44{fill:url(#SVGID_21_);}
	.st45{fill:url(#SVGID_22_);}
	.st46{fill:url(#SVGID_23_);}
	.st47{fill:url(#SVGID_24_);}
	.st48{fill:#FFFFFF;stroke:url(#SVGID_25_);stroke-miterlimit:10;}
	.st49{fill:url(#SVGID_26_);}
	.st50{fill:url(#SVGID_27_);}
	.st51{fill:#080609;}
	.st52{fill:url(#SVGID_28_);}
</style>
<rect x="-0.3" y="0.3" class="st0" width="612.8" height="791.4"/>
<g>
	<path class="st1" d="M345.7,242.1c13.6-12.9-18.7-22.2-27-54.4c-7.3-28.3-65.3-37.4-80.5-38.5c-25.1-1.8-54.5,7.6-73.8,27
		c-16.4,16.4-55.3,68.4-78,63.1c-16.2-3.7-28.9-15.7-38.2-28.6C38,196.6,31,177.1,41.4,163.2c2.6-3.4,6-6.2,8-10
		c4.3-8.1,0.4-17.8-4.3-25.7c-5.5-9.1-12.6-18-22.8-22.3c-6.6-2.8-22.6-7.2-22.6-7.2L-0.5-0.1c0,0,603-3.3,612-1.3v138.5
		c0,0-15.4,19.4-23.4,27.3c-9.9,9.8-24.8,13.7-39.2,14.9c-62.4,5-120.6-33.8-183.3-34.7c-3.3,0-6.8,0.1-9.3,2.1
		c-2.5,2-3.2,5.4-3.6,8.4c-1.9,15.8,0.8,32.1,7.8,46.6c4.6,9.5,11.1,18.3,15,28.1c4,9.8,4.3,22.3-1.4,31.3
		c-11.8,17.5-61.2,11.1-61.2,11.1"/>
</g>
<image style="display:none;overflow:visible;" width="1920" height="2115" xlink:href="../../Users/luisvillafranca/Downloads/Image from iOS.jpg"  transform="matrix(0.3333 0 0 0.3333 0.8636 1.6364)">
</image>
<g class="st2">
	<path class="st3" d="M524.5,702.2c-13.8-9.5-34.6-7.4-50.3-4.6c-13.5,2.4-26,7.6-37.4,14.7c-4.5-0.8-8.6,0.4-11.9,3
		c-3.2-8.2-10.2-14.6-19.8-14.8c-6.2-0.1-12.2,2.3-16.7,6.5c-2.2,2.1-4.3,4.8-5.8,7.5c-1.1,1.8-1.9,6-3.5,7.5
		c-1.9,1.9-6.8,0.5-10.5,0.2c-6.2-0.6-11.8-0.4-18,0.9c-18.9,4.1-10.9,33.1,8,29c10-2.1,19.9,2.4,30.1-0.8c3.5-1.1,6.6-3,9.4-5.4
		c0.1,0.4,0.3,0.8,0.5,1.2c4.2,8.7,12.4,13.6,21.7,15c10.4,1.6,20.4-0.8,28.3-6.3c0.9,0,1.8-0.2,2.8-0.4
		c21.2-4.6,42.9-8.2,63.8-13.8c8.6-2.3,16.5-7,18.9-16.2C536.5,716.3,532,707.4,524.5,702.2z M445.9,723.1c0.4,0.5,0.8,1.1,1.2,1.6
		c-0.3,0-0.5-0.1-0.8-0.1C446.2,724.1,446.1,723.6,445.9,723.1z M448,730.7c-0.1-0.4-0.2-0.7-0.3-1.1c0.1-0.3,0.2-0.6,0.2-0.9
		C448,729.4,448,730,448,730.7z M426.1,719.6c0.2,0.8,0.3,1.6,0.4,2.4c-1-0.1-2-0.3-3.1-0.4C424.4,720.9,425.2,720.3,426.1,719.6z"
		/>
	<path class="st3" d="M426.1,719.6c0.2,0.8,0.3,1.6,0.4,2.4c-1-0.1-2-0.3-3.1-0.4C424.4,720.9,425.2,720.3,426.1,719.6z"/>
	<path class="st3" d="M445.9,723.1c0.4,0.5,0.8,1.1,1.2,1.6c-0.3,0-0.5-0.1-0.8-0.1C446.2,724.1,446.1,723.6,445.9,723.1z"/>
	<path class="st3" d="M448,730.7c-0.1-0.4-0.2-0.7-0.3-1.1c0.1-0.3,0.2-0.6,0.2-0.9C448,729.4,448,730,448,730.7z"/>
</g>
<g class="st4">
	<path class="st3" d="M249.7,738c-13.8-5.3-34.6-4.1-50.3-2.5c-13.5,1.3-26,4.2-37.4,8.1c-4.5-0.4-8.6,0.2-11.9,1.7
		c-3.2-4.5-10.2-8.1-19.8-8.2c-6.2-0.1-12.2,1.3-16.7,3.6c-2.2,1.2-4.3,2.6-5.8,4.1c-1.1,1-1.9,3.3-3.5,4.2
		c-1.9,1.1-6.8,0.3-10.5,0.1c-6.2-0.3-11.8-0.2-18,0.5c-18.9,2.2-10.9,18.3,8,16.1c10-1.2,19.9,1.3,30.1-0.5c3.5-0.6,6.6-1.7,9.4-3
		c0.1,0.2,0.3,0.4,0.5,0.7c4.2,4.8,12.4,7.5,21.7,8.3c10.4,0.9,20.4-0.4,28.3-3.5c0.9,0,1.8-0.1,2.8-0.2c21.2-2.5,42.9-4.5,63.8-7.6
		c8.6-1.3,16.5-3.9,18.9-9C261.7,745.8,257.2,740.9,249.7,738z M171.1,749.6c0.4,0.3,0.8,0.6,1.2,0.9c-0.3,0-0.5,0-0.8-0.1
		C171.4,750.1,171.3,749.9,171.1,749.6z M173.2,753.8c-0.1-0.2-0.2-0.4-0.3-0.6c0.1-0.2,0.2-0.3,0.2-0.5
		C173.2,753.1,173.2,753.4,173.2,753.8z M151.3,747.7c0.2,0.4,0.3,0.9,0.4,1.3c-1-0.1-2-0.1-3.1-0.2
		C149.5,748.4,150.4,748,151.3,747.7z"/>
	<path class="st3" d="M151.3,747.7c0.2,0.4,0.3,0.9,0.4,1.3c-1-0.1-2-0.1-3.1-0.2C149.5,748.4,150.4,748,151.3,747.7z"/>
	<path class="st3" d="M171.1,749.6c0.4,0.3,0.8,0.6,1.2,0.9c-0.3,0-0.5,0-0.8-0.1C171.4,750.1,171.3,749.9,171.1,749.6z"/>
	<path class="st3" d="M173.2,753.8c-0.1-0.2-0.2-0.4-0.3-0.6c0.1-0.2,0.2-0.3,0.2-0.5C173.2,753.1,173.2,753.4,173.2,753.8z"/>
</g>
<g>
	<path class="st5" d="M431.3,510.3c0,0,10.6,13.6,12.9,19.3c0.5,1.2,1,2.3,1.8,3.2c0.8,1,1.8,2.7,2.8,5.4c0.1,0.4,0.3,0.7,0.5,1.1
		l7.2,10.8c0,0,3.7,0.7,2.4-1.2c-1.2-2-4.4-7.1-4.4-7.1l7.3,10c0,0,4.2,0.7,2.9-2c-1.2-2.7-7.3-8.6-7.3-8.6l9.3,7.8
		c0,0,3.4-0.2,1.5-3.2c-2-2.9-9-8.3-9-8.3s-0.3-1,0.9-0.5l6.5,5.8c0,0,4.1,2,3-2.3l-9.2-9.2c0,0-1-2,0.9-1l5.9,3.3
		c0,0,4.3,1.5,2.8-2.6c0,0-8.9-7.5-11.6-8.1c0,0-11.1-6.2-11.5-9.4l-9.4-9.6L431.3,510.3z"/>
	<path class="st6" d="M365.9,681.8l9.1,44.7c0,0-22.4,9.1-29,9.1s1.7-6.6,1.7-6.6l9.9-4.1c0,0,6.6,0,0-18.2
		c-6.6-18.2-7.5-33.9-7.5-33.9L365.9,681.8z"/>
	<path class="st6" d="M472.5,664.4l32.3,32.3c0,0-13.6,19.9-19.1,23.6s-0.6-4-0.6-4l5.7-10.7c0,0,4.2-4.4-11.4-15.9
		c-15.6-11.5-24.9-24.2-24.9-24.2L472.5,664.4z"/>
	<path class="st7" d="M364.9,389.3c0,0-11.8-4.9-10.3-23.2c0,0-3.9-3,1-5.4c0,0,3.9-3.9,3.4-7.9c0,0,51.7,4.4,27.6,28.6
		C386.6,381.4,388.1,392.2,364.9,389.3z"/>
	<path class="st8" d="M328.1,492.9c0,0-5.6,36.7-5.2,61.2c0,0,3,47.4,11.2,88.9c0,0,13.4,47,12.9,51.8c0,0,12.1,7.3,28-0.9
		c0,0,4.7-18.1-7.3-62.5l-0.9-80.2c0,0,10.8,44,23.3,62.5c0,0,31.5,41.8,74.6,69c0,0,14.7-1.3,17.7-15.5c0,0-75.1-92.3-72.5-109.6
		c0,0-4.3-52.6-20.3-61.7S328.1,492.9,328.1,492.9z"/>
	<path class="st9" d="M318.2,324.3c1.6,10.1,9.7,55.3,28.1,66c1.5,0.8,3.2,1.1,4.9,1c10.6-1.1,53.8-3.9,51.2,23.7
		c-0.1,1.5,0,3,0.3,4.5c1.7,7.6,7.4,29.9,19.5,49.1c0.2,0.3,0.3,0.6,0.5,0.9l17.4,33c0.8,1.6,0.8,3.5-0.1,5
		c-1.6,2.7-4.6,6.6-9.1,7.7c-1.7,0.4-3.6-0.3-4.7-1.7L403,484.9c0,0,4.4,8.2-5.3,8.7c0,0,5.7,9.3-3.5,7.8c0,0-21.4,1.8-64.7-4.8
		c-0.7-0.1-1.3-0.5-1.6-1.1l-2.8-4.9c0,0-13.6-2.9-0.5-30c0,0,3.9-5.8-2.4-26.6c0,0-4.9-27.2-9-32.5c-0.7-0.9-1.3-2-1.6-3.1
		c-2.1-10.8-11.1-57.2-12-71.8c-0.1-2.4,1.7-4.3,4.1-4.3c3.7,0,9.1,0,12.1,0C317,322.3,318,323.2,318.2,324.3z"/>
	<path class="st1" d="M377.3,336.1c0,0,34-1.9,29.2,43.7c0,0,1,18.5-10.7,36.9c0,0-6.2,15.8,0.2,21.7c0,0,9.4,27.6-26.1,22.2
		c0,0-35-2-31.5-42.9c0,0,6.4-16.8,12.8-20.2c0,0,13.8-3.4,9.9-20.2c0,0-4.4-13.6-1.4-25.2C361.5,344.8,366.4,338.1,377.3,336.1z"/>
	<path class="st10" d="M390.4,458.5c0,0,2.3,11.4-4.6,13.7l5.9,7.8c0,0,5,3.6-5.9,5.9c0,0-5.9,1.8-4.1,5c0,0-53,4.1-60.7-2.7
		l7.3,7.8c0,0,19.4,6.6,65.8,5.5c1.9-0.5,10.3,3.6,3.5-7.8c0,0,9.3-0.1,5.3-8.7L390.4,458.5z"/>
	<g>
		<path class="st11" d="M401.4,481.2c-1.4-1.6-2.5-3.3-3.5-5.1c-1-1.8-2-3.6-2.9-5.5c-0.9-1.9-1.9-3.7-2.6-5.7c-0.7-2-1.2-4-1.3-6.1
			c0-0.1,0.1-0.3,0.2-0.3c0.1,0,0.2,0.1,0.3,0.2l0,0c0.4,2,1,3.9,1.6,5.9c0.7,1.9,1.3,3.9,2.2,5.7c1.8,3.7,4.2,7,6.3,10.5l0,0
			c0.1,0.1,0,0.3-0.1,0.3C401.6,481.3,401.5,481.3,401.4,481.2z"/>
	</g>
	<g>
		<path class="st11" d="M397.9,493.5c-2,0.4-4,0.7-6.1,0.9c-2,0.2-4.1,0.4-6.1,0.5c-2.1,0.1-4.1,0.1-6.2-0.1
			c-2.1-0.1-4.1-0.4-6.1-0.8c-0.1,0-0.2-0.2-0.2-0.3c0-0.1,0.2-0.2,0.3-0.2l0,0c2,0.4,4,0.5,6.1,0.7c2,0.1,4.1,0.1,6.1,0
			c2-0.1,4.1-0.2,6.1-0.4c2-0.2,4.1-0.5,6.1-0.8c0.1,0,0.3,0.1,0.3,0.2C398.1,493.3,398,493.5,397.9,493.5z"/>
	</g>
	<g>
		<path class="st11" d="M348.5,492.7c-2.2,0.2-4.3,0.2-6.5,0.2c-2.2,0-4.3-0.1-6.4-0.3c-2.1-0.2-4.3-0.5-6.4-0.9
			c-2.1-0.4-4.2-0.9-6.3-1.7c-0.1,0-0.2-0.2-0.2-0.3c0-0.1,0.2-0.2,0.3-0.2l0,0c2,0.6,4.1,1.1,6.2,1.5c2.1,0.4,4.2,0.6,6.3,0.8
			c2.1,0.2,4.3,0.3,6.4,0.4c2.1,0,4.3,0.1,6.4,0c0.1,0,0.3,0.1,0.3,0.2C348.7,492.6,348.6,492.7,348.5,492.7z"/>
	</g>
	<linearGradient id="SVGID_1_" gradientUnits="userSpaceOnUse" x1="353.7675" y1="359.6327" x2="373.552" y2="359.6327">
		<stop  offset="6.985781e-03" style="stop-color:#65BC46"/>
		<stop  offset="4.163541e-02" style="stop-color:#64BC49"/>
		<stop  offset="8.913609e-02" style="stop-color:#5FBB55"/>
		<stop  offset="0.1441" style="stop-color:#55BB6A"/>
		<stop  offset="0.2046" style="stop-color:#45BA87"/>
		<stop  offset="0.2689" style="stop-color:#25BAA7"/>
		<stop  offset="0.3239" style="stop-color:#00BAC8"/>
		<stop  offset="0.3643" style="stop-color:#00BAC4"/>
		<stop  offset="0.4161" style="stop-color:#00B8BA"/>
		<stop  offset="0.4741" style="stop-color:#00B4A8"/>
		<stop  offset="0.5365" style="stop-color:#00B092"/>
		<stop  offset="0.6026" style="stop-color:#00AB74"/>
		<stop  offset="0.6708" style="stop-color:#00A652"/>
		<stop  offset="0.6747" style="stop-color:#00A651"/>
		<stop  offset="0.7068" style="stop-color:#00A851"/>
		<stop  offset="0.7534" style="stop-color:#00AC4F"/>
		<stop  offset="0.8084" style="stop-color:#2EB34B"/>
		<stop  offset="0.8587" style="stop-color:#68BD46"/>
	</linearGradient>
	<path class="st12" d="M354.1,358.7c0,0,11.3,4.6,12.8,9.2c0,0,6,3.5,6.7-3.5l-16.7-13.8C356.9,350.5,352.6,354.8,354.1,358.7z"/>
	<g>
		<linearGradient id="SVGID_2_" gradientUnits="userSpaceOnUse" x1="290.807" y1="272.6383" x2="337.6934" y2="272.6383">
			<stop  offset="6.985781e-03" style="stop-color:#65BC46"/>
			<stop  offset="4.163541e-02" style="stop-color:#64BC49"/>
			<stop  offset="8.913609e-02" style="stop-color:#5FBB55"/>
			<stop  offset="0.1441" style="stop-color:#55BB6A"/>
			<stop  offset="0.2046" style="stop-color:#45BA87"/>
			<stop  offset="0.2689" style="stop-color:#25BAA7"/>
			<stop  offset="0.3239" style="stop-color:#00BAC8"/>
			<stop  offset="0.3643" style="stop-color:#00BAC4"/>
			<stop  offset="0.4161" style="stop-color:#00B8BA"/>
			<stop  offset="0.4741" style="stop-color:#00B4A8"/>
			<stop  offset="0.5365" style="stop-color:#00B092"/>
			<stop  offset="0.6026" style="stop-color:#00AB74"/>
			<stop  offset="0.6708" style="stop-color:#00A652"/>
			<stop  offset="0.6747" style="stop-color:#00A651"/>
			<stop  offset="0.7068" style="stop-color:#00A851"/>
			<stop  offset="0.7534" style="stop-color:#00AC4F"/>
			<stop  offset="0.8084" style="stop-color:#2EB34B"/>
			<stop  offset="0.8587" style="stop-color:#68BD46"/>
		</linearGradient>
		<path class="st13" d="M337.7,274.8c-0.6,5.9-5.4,7.8-10.7,7.6c-4.7-0.2-8.9-1.7-13.3-2.7c-5.7,0.7-11.4,1.4-17.1,2.2
			c-7.7,1-7.6-11.1,0-12.1c0.5-0.1,0.9-0.1,1.4-0.1c5.9-0.7,12.3-0.9,18.1-2c0.6-0.1,1.3-0.3,1.9-0.5c3-3.3,7.1-5.3,11.8-3.8
			C334.5,264.8,338.1,269.9,337.7,274.8z"/>
	</g>
	<path class="st14" d="M299.6,326.6c0,0,3.6-18.8,1.1-31.8c0,0-4.5-19.6-2-25.6c2.5-6,3.3-2.3,3.9-2.1c0.6,0.2,1.3-2.1,3.6,0
		c0,0,0.9-1.3,2.6,0c0,0,1.9-1.3,2.8,0.2c0.9,1.5,1.3-7.5,1.3-7.5s2.6-2.8,3.4,0.9c0,0-0.2,13.2-0.9,14.3s-1.7,15.6-2.8,16.4
		c-1.1,0.9-1.8,13.7,3.1,30.9C320.6,339.5,299.6,326.6,299.6,326.6z"/>
	<circle class="st15" cx="327.8" cy="272.6" r="5.5"/>
	<path class="st8" d="M499.2,690.1c0,0-0.3,21.3-15.2,30.4c-1.5,0.9,0.9,2.4,0.4-3c-3.5,5.9-0.3,10.1,1.5,11
		c2.3,1.1,4.2,0.2,6.1-1.6c3.5-3.3,8-9.5,9.7-15.9c1.2-4.3-1.5-6.3,6.2-11.1c2.2-1.4,2-3.6,0.8-5.8
		C506.7,690.7,503.5,687.2,499.2,690.1z"/>
	<path class="st8" d="M373.9,719.2c0,0,4.4,1.5,3.6,10.4c-0.1,1.2-0.9,2.2-2,2.6c-1.9,0.7-5.1,1.6-7.5,1.7c0,0-11.8,1.9-16.6,4.6
		c-1,0.6-2.2,0.9-3.4,0.9l-8.7,0.2c0,0-5.7,0-2.6-4.3s10.7-6.4,10.7-6.4l-3.6,5.2C343.8,734.2,368.7,731.6,373.9,719.2z"/>
</g>
<path class="st16" d="M167.4,331.2c0,0,12.5,7.9,13.3,10.5c0,0,8.9-0.9,5,5c0,0,5.4,8.1,0.7,18.8c0,0-7,11.1,1.1,23.1
	c0,0-0.7,9.8-24.7,1.3c0,0,5.9-8.7,4.1-15.9l-5.2-9.8c0,0-5.5-10.1,2.4-11.3c0,0-2.6-17.5,3.7-18.1L167.4,331.2z"/>
<path class="st17" d="M164.7,375.6c0,0,5.2-2.6,2-10.5c0,0-8.9-2.6-4.2-9.8c0,0,6.1,0.7,6.5,3.1c0,0,2.6-3-1.1-5.4
	c-3.7-2.4-4.1-8.1-4.1-8.1l14-17.7c0,0,7.2-6.8-2-10.5c0,0-5.4-0.2-8.1,2.8c0,0-6.5-7.6-12.5,0.6c0,0-4.1-2.8-2,7.2
	c0,0-21,2-10.3,14.9c0,0-2,19.2,5.4,24.2C148.1,366.4,153.6,370.4,164.7,375.6z"/>
<linearGradient id="SVGID_3_" gradientUnits="userSpaceOnUse" x1="169.6811" y1="340.8906" x2="182.9834" y2="340.8906">
	<stop  offset="6.985781e-03" style="stop-color:#65BC46"/>
	<stop  offset="4.163541e-02" style="stop-color:#64BC49"/>
	<stop  offset="8.913609e-02" style="stop-color:#5FBB55"/>
	<stop  offset="0.1441" style="stop-color:#55BB6A"/>
	<stop  offset="0.2046" style="stop-color:#45BA87"/>
	<stop  offset="0.2689" style="stop-color:#25BAA7"/>
	<stop  offset="0.3239" style="stop-color:#00BAC8"/>
	<stop  offset="0.3643" style="stop-color:#00BAC4"/>
	<stop  offset="0.4161" style="stop-color:#00B8BA"/>
	<stop  offset="0.4741" style="stop-color:#00B4A8"/>
	<stop  offset="0.5365" style="stop-color:#00B092"/>
	<stop  offset="0.6026" style="stop-color:#00AB74"/>
	<stop  offset="0.6708" style="stop-color:#00A652"/>
	<stop  offset="0.6747" style="stop-color:#00A651"/>
	<stop  offset="0.7068" style="stop-color:#00A851"/>
	<stop  offset="0.7534" style="stop-color:#00AC4F"/>
	<stop  offset="0.8084" style="stop-color:#2EB34B"/>
	<stop  offset="0.8587" style="stop-color:#68BD46"/>
</linearGradient>
<path class="st18" d="M175.7,333.1l-5.7,7.7c-0.5,0.7-0.5,1.7,0.2,2.4l5.6,5.7c1,1,2.7,0.6,3.1-0.7l4-8.8c0.2-0.7,0-1.5-0.6-2
	l-4-4.6C177.5,332.1,176.3,332.2,175.7,333.1z"/>
<linearGradient id="SVGID_4_" gradientUnits="userSpaceOnUse" x1="171.8474" y1="340.3243" x2="181.9805" y2="340.3243">
	<stop  offset="0" style="stop-color:#67686A"/>
	<stop  offset="0.5164" style="stop-color:#A6BFCC"/>
	<stop  offset="1" style="stop-color:#637E8C"/>
</linearGradient>
<path class="st19" d="M176.3,334.6l-4.2,5.7c-0.4,0.5-0.3,1.3,0.1,1.8l4.1,4.2c0.7,0.7,2,0.4,2.3-0.5l3.3-6.7c0.2-0.5,0-1.1-0.4-1.5
	l-3.2-3.2C177.7,333.8,176.8,333.9,176.3,334.6z"/>
<linearGradient id="SVGID_5_" gradientUnits="userSpaceOnUse" x1="162.5602" y1="349.7919" x2="175.809" y2="349.7919">
	<stop  offset="6.985781e-03" style="stop-color:#65BC46"/>
	<stop  offset="4.163541e-02" style="stop-color:#64BC49"/>
	<stop  offset="8.913609e-02" style="stop-color:#5FBB55"/>
	<stop  offset="0.1441" style="stop-color:#55BB6A"/>
	<stop  offset="0.2046" style="stop-color:#45BA87"/>
	<stop  offset="0.2689" style="stop-color:#25BAA7"/>
	<stop  offset="0.3239" style="stop-color:#00BAC8"/>
	<stop  offset="0.3643" style="stop-color:#00BAC4"/>
	<stop  offset="0.4161" style="stop-color:#00B8BA"/>
	<stop  offset="0.4741" style="stop-color:#00B4A8"/>
	<stop  offset="0.5365" style="stop-color:#00B092"/>
	<stop  offset="0.6026" style="stop-color:#00AB74"/>
	<stop  offset="0.6708" style="stop-color:#00A652"/>
	<stop  offset="0.6747" style="stop-color:#00A651"/>
	<stop  offset="0.7068" style="stop-color:#00A851"/>
	<stop  offset="0.7534" style="stop-color:#00AC4F"/>
	<stop  offset="0.8084" style="stop-color:#2EB34B"/>
	<stop  offset="0.8587" style="stop-color:#68BD46"/>
</linearGradient>
<path class="st20" d="M162.6,355.4c0,0,1.3,0.1,4,1.1l9.2-7.6l-5.6-5.7L162.6,355.4z"/>
<path class="st21" d="M171.2,375.5c3-0.5,11.1-2.4,14.6-8.6c0,0-2.8,5.7-2.2,10.8c0,0-8.2-1.2-12.4-1.9
	C170.9,375.8,170.9,375.5,171.2,375.5z"/>
<path class="st8" d="M164.2,390.6c6.2,1.7,18.5,4,25.9-1.2c0,0,19.5,27.8,19.5,55.2c0,0-0.8,43.6,3,45.4c0,0,9,28.2-3.8,28.9
	c0,0-41.7,10.1-59.7,5.3c0,0-4.9-3.4-6-18.4l0.4-82.6c0,0,1-17.5,13.4-30.6C158.8,390.7,161.6,389.9,164.2,390.6z"/>
<path class="st22" d="M199.5,722.5l-1.6,21.3c0,0,12.9,2.5,16.8,0.4l-0.8-6.5l-0.8-16.8L199.5,722.5z"/>
<path class="st23" d="M155.2,426.6c0,0-6,49.9,0,59c0,0-1.5,24.8,3.8,25.5c0,0-1.1,9.8,9.8,6.4l6.8-0.4l-1.9-6.8
	c0,0-9.8,2.6-13.1-13.5c-3.4-16.1-1.5-12.8-1.5-12.8S152.5,464.9,155.2,426.6z"/>
<path class="st24" d="M160.9,524.8c0,0-10.9,16.5,13.4,48.3l15.6,50.2c0,0-4.4,28.4,1.2,91.3c0,0-2.1,21.1,12.3,18.1
	c1-0.2,2.1-0.2,3.1-0.1c4.7,0.4,17.2,0.5,16.6-9.9c-0.6-12.8,8.4-111.6,0.9-133.1c0,0-0.3-22.4-5.3-30.9s2.8-8.1-3.1-14.6l-3.4-26.5
	L160.9,524.8z"/>
<path class="st25" d="M189,503.2c0,0,7.7,26.1,12.9,28c0,0,4.9,4.6-4.5,7.6c0,0-20-15.7-22.7-25.8C172.1,502.8,189,503.2,189,503.2z
	"/>
<path class="st26" d="M203,528.6c0,0-0.5,9.8-7.9,13.1c0,0,1.8,2.6,5.8-2.1C204.3,535.4,203,528.6,203,528.6z"/>
<path class="st22" d="M143.5,717.3l-6,20.5c0,0,12.1,5.1,16.3,3.8l0.5-6.6l2.6-16.6L143.5,717.3z"/>
<path class="st27" d="M138.9,732c0,0-8.7,9.5-2.4,12.5l39.8,8.6c0,0,6.1-4,0.4-7s-8.7-9.2-22.4-11c0,0-0.7,4.4-8.2,3.1
	C146.2,738.1,138.8,737.4,138.9,732z"/>
<path class="st28" d="M149.2,519.5c0,0,0.6,19.6,6.2,51.7s-5.6,60.7-5.6,60.7s0.6,7.7-3.6,24.1c0,0-16.7,67.5-5.9,70.2
	s18.4,6.8,22.9-0.9l25.9-106.1l3.3-13.1l-31.4-81.2C160.9,524.8,150.7,529.6,149.2,519.5z"/>
<path class="st29" d="M166.9,622.9c0,0-6.4-6.7,3.7-9.2c0,0,14.3-4,4.3-18.6c0,0-20.8-25.6-21.1-51l-4.6-24.6c0,0,3.5,10.4,11.7,5.3
	c0,0-8.9,22,12.7,45.8l15.4,48.4l-25.9,106.1c0,0-3.3,6.3-12.7,3.2l5.5-35.4c0,0,4.9-41.5,13.7-47.6
	C178.5,639.4,166.9,622.9,166.9,622.9z"/>
<path class="st27" d="M198,737.8c0,0-6.5,11.1,0.2,12.7l40.7,0.2c0,0,5.1-5.1-1-7c-6.1-1.8-10.4-7.2-24.1-6.1c0,0,0.2,4.5-7.4,4.7
	C206.4,742.3,199.1,743.1,198,737.8z"/>
<linearGradient id="SVGID_6_" gradientUnits="userSpaceOnUse" x1="67.153" y1="110.2858" x2="101.4795" y2="110.2858">
	<stop  offset="6.779100e-03" style="stop-color:#F47522"/>
	<stop  offset="1" style="stop-color:#FBD752"/>
</linearGradient>
<path class="st30" d="M101.5,119.5c0,2.3-4.1,3.7-5.8,2c-1.6-1.6-28.5-20.6-28.5-22.9s28.3,14.2,30.3,15.3
	C99.3,114.9,101.5,117.2,101.5,119.5z"/>
<linearGradient id="SVGID_7_" gradientUnits="userSpaceOnUse" x1="554.7426" y1="95.87" x2="589.069" y2="95.87" gradientTransform="matrix(-0.8979 -0.4402 0.4402 -0.8979 1043.233 433.6833)">
	<stop  offset="6.779100e-03" style="stop-color:#F47522"/>
	<stop  offset="1" style="stop-color:#FBD752"/>
</linearGradient>
<path class="st31" d="M560.5,80.1c1-2.1,5.3-1.5,6.1,0.8c0.7,2.2,16.5,31.1,15.5,33.1c-1,2.1-19.2-25.3-20.5-27.1
	C560.5,85.1,559.5,82.1,560.5,80.1z"/>
<circle class="st32" cx="151.2" cy="103.1" r="1"/>
<circle class="st32" cx="170" cy="85.9" r="0.7"/>
<circle class="st32" cx="195.1" cy="96.7" r="0.5"/>
<circle class="st32" cx="142.4" cy="101.5" r="0.7"/>
<circle class="st32" cx="142" cy="82.7" r="0.5"/>
<circle class="st32" cx="160.2" cy="74" r="0.3"/>
<circle class="st32" cx="189.6" cy="106.2" r="0.7"/>
<circle class="st32" cx="171.2" cy="110" r="0.5"/>
<circle class="st32" cx="159.3" cy="93.7" r="0.3"/>
<circle class="st32" cx="209.9" cy="81.7" r="0.7"/>
<circle class="st32" cx="191.4" cy="85.5" r="0.5"/>
<circle class="st32" cx="179.5" cy="69.2" r="0.3"/>
<circle class="st32" cx="18.7" cy="71.8" r="1"/>
<circle class="st32" cx="37.5" cy="54.6" r="0.7"/>
<circle class="st32" cx="62.5" cy="65.4" r="0.5"/>
<circle class="st32" cx="9.9" cy="70.2" r="0.7"/>
<circle class="st32" cx="9.4" cy="51.4" r="0.5"/>
<circle class="st32" cx="27.7" cy="42.7" r="0.3"/>
<circle class="st32" cx="57.1" cy="74.9" r="0.7"/>
<circle class="st32" cx="38.7" cy="78.7" r="0.5"/>
<circle class="st32" cx="26.8" cy="62.4" r="0.3"/>
<circle class="st32" cx="77.4" cy="50.4" r="0.7"/>
<circle class="st32" cx="58.9" cy="54.2" r="0.5"/>
<circle class="st32" cx="47" cy="37.9" r="0.3"/>
<circle class="st32" cx="71.4" cy="131" r="1"/>
<circle class="st32" cx="90.2" cy="113.8" r="0.7"/>
<circle class="st32" cx="115.3" cy="124.7" r="0.5"/>
<circle class="st32" cx="62.6" cy="129.5" r="0.7"/>
<circle class="st32" cx="62.2" cy="110.6" r="0.5"/>
<circle class="st32" cx="80.4" cy="101.9" r="0.3"/>
<circle class="st32" cx="109.8" cy="134.1" r="0.7"/>
<circle class="st32" cx="91.4" cy="138" r="0.5"/>
<circle class="st32" cx="79.5" cy="121.6" r="0.3"/>
<circle class="st32" cx="130.1" cy="109.6" r="0.7"/>
<circle class="st32" cx="111.6" cy="113.5" r="0.5"/>
<circle class="st32" cx="99.8" cy="97.1" r="0.3"/>
<circle class="st32" cx="67.4" cy="181.7" r="1"/>
<circle class="st32" cx="86.2" cy="164.5" r="0.7"/>
<circle class="st32" cx="111.3" cy="175.3" r="0.5"/>
<circle class="st32" cx="58.6" cy="180.1" r="0.7"/>
<circle class="st32" cx="58.2" cy="161.3" r="0.5"/>
<circle class="st32" cx="76.4" cy="152.6" r="0.3"/>
<circle class="st32" cx="105.8" cy="184.7" r="0.7"/>
<circle class="st32" cx="87.4" cy="188.6" r="0.5"/>
<circle class="st32" cx="75.5" cy="172.3" r="0.3"/>
<circle class="st32" cx="126.1" cy="160.2" r="0.7"/>
<circle class="st32" cx="107.6" cy="164.1" r="0.5"/>
<circle class="st32" cx="95.7" cy="147.8" r="0.3"/>
<circle class="st32" cx="146.5" cy="146.7" r="1"/>
<circle class="st32" cx="165.2" cy="129.5" r="0.7"/>
<circle class="st32" cx="190.3" cy="140.3" r="0.5"/>
<circle class="st32" cx="137.6" cy="145.1" r="0.7"/>
<circle class="st32" cx="137.2" cy="126.3" r="0.5"/>
<circle class="st32" cx="155.5" cy="117.6" r="0.3"/>
<circle class="st32" cx="184.9" cy="149.7" r="0.7"/>
<circle class="st32" cx="166.4" cy="153.6" r="0.5"/>
<circle class="st32" cx="154.5" cy="137.3" r="0.3"/>
<circle class="st32" cx="205.1" cy="125.2" r="0.7"/>
<circle class="st32" cx="186.7" cy="129.1" r="0.5"/>
<circle class="st32" cx="174.8" cy="112.8" r="0.3"/>
<circle class="st32" cx="230" cy="109" r="1"/>
<circle class="st32" cx="248.8" cy="91.8" r="0.7"/>
<circle class="st32" cx="273.9" cy="102.6" r="0.5"/>
<circle class="st32" cx="221.2" cy="107.4" r="0.7"/>
<circle class="st32" cx="220.8" cy="88.6" r="0.5"/>
<circle class="st32" cx="239" cy="79.9" r="0.3"/>
<circle class="st32" cx="268.4" cy="112.1" r="0.7"/>
<circle class="st32" cx="250" cy="115.9" r="0.5"/>
<circle class="st32" cx="238.1" cy="99.6" r="0.3"/>
<circle class="st32" cx="288.7" cy="87.6" r="0.7"/>
<circle class="st32" cx="270.2" cy="91.4" r="0.5"/>
<circle class="st32" cx="258.4" cy="75.1" r="0.3"/>
<circle class="st32" cx="286.9" cy="142.3" r="1"/>
<circle class="st32" cx="305.7" cy="125.1" r="0.7"/>
<circle class="st32" cx="330.8" cy="135.9" r="0.5"/>
<circle class="st32" cx="278.1" cy="140.7" r="0.7"/>
<circle class="st32" cx="277.7" cy="121.9" r="0.5"/>
<circle class="st32" cx="295.9" cy="113.2" r="0.3"/>
<circle class="st32" cx="325.3" cy="145.4" r="0.7"/>
<circle class="st32" cx="306.9" cy="149.2" r="0.5"/>
<circle class="st32" cx="295" cy="132.9" r="0.3"/>
<circle class="st32" cx="345.6" cy="120.9" r="0.7"/>
<circle class="st32" cx="327.1" cy="124.7" r="0.5"/>
<circle class="st32" cx="315.3" cy="108.4" r="0.3"/>
<circle class="st32" cx="316.2" cy="90" r="1"/>
<circle class="st32" cx="335" cy="72.8" r="0.7"/>
<circle class="st32" cx="360.1" cy="83.6" r="0.5"/>
<circle class="st32" cx="307.4" cy="88.4" r="0.7"/>
<circle class="st32" cx="307" cy="69.6" r="0.5"/>
<circle class="st32" cx="325.2" cy="60.9" r="0.3"/>
<circle class="st32" cx="354.6" cy="93" r="0.7"/>
<circle class="st32" cx="336.2" cy="96.9" r="0.5"/>
<circle class="st32" cx="324.3" cy="80.5" r="0.3"/>
<circle class="st32" cx="374.9" cy="68.5" r="0.7"/>
<circle class="st32" cx="356.4" cy="72.4" r="0.5"/>
<circle class="st32" cx="344.6" cy="56" r="0.3"/>
<circle class="st32" cx="123.6" cy="44.1" r="1"/>
<circle class="st32" cx="142.4" cy="26.9" r="0.7"/>
<circle class="st32" cx="167.5" cy="37.8" r="0.5"/>
<circle class="st32" cx="114.8" cy="42.6" r="0.7"/>
<circle class="st32" cx="114.4" cy="23.7" r="0.5"/>
<circle class="st32" cx="132.6" cy="15" r="0.3"/>
<circle class="st32" cx="162" cy="47.2" r="0.7"/>
<circle class="st32" cx="143.6" cy="51.1" r="0.5"/>
<circle class="st32" cx="131.7" cy="34.7" r="0.3"/>
<circle class="st32" cx="182.3" cy="22.7" r="0.7"/>
<circle class="st32" cx="163.8" cy="26.6" r="0.5"/>
<circle class="st32" cx="152" cy="10.2" r="0.3"/>
<circle class="st32" cx="53.5" cy="41.3" r="1"/>
<circle class="st32" cx="72.2" cy="24.1" r="0.7"/>
<circle class="st32" cx="97.3" cy="34.9" r="0.5"/>
<circle class="st32" cx="44.6" cy="39.7" r="0.7"/>
<circle class="st32" cx="44.2" cy="20.9" r="0.5"/>
<circle class="st32" cx="62.4" cy="12.2" r="0.3"/>
<circle class="st32" cx="91.9" cy="44.3" r="0.7"/>
<circle class="st32" cx="73.4" cy="48.2" r="0.5"/>
<circle class="st32" cx="61.5" cy="31.9" r="0.3"/>
<circle class="st32" cx="112.1" cy="19.8" r="0.7"/>
<circle class="st32" cx="93.7" cy="23.7" r="0.5"/>
<circle class="st32" cx="81.8" cy="7.4" r="0.3"/>
<circle class="st32" cx="212.4" cy="34.8" r="1"/>
<circle class="st32" cx="231.2" cy="17.6" r="0.7"/>
<circle class="st32" cx="256.2" cy="28.5" r="0.5"/>
<circle class="st32" cx="203.6" cy="33.3" r="0.7"/>
<circle class="st32" cx="203.1" cy="14.4" r="0.5"/>
<circle class="st32" cx="221.4" cy="5.7" r="0.3"/>
<circle class="st32" cx="250.8" cy="37.9" r="0.7"/>
<circle class="st32" cx="232.4" cy="41.8" r="0.5"/>
<circle class="st32" cx="220.5" cy="25.4" r="0.3"/>
<circle class="st32" cx="271.1" cy="13.4" r="0.7"/>
<circle class="st32" cx="252.6" cy="17.3" r="0.5"/>
<circle class="st32" cx="240.7" cy="0.9" r="0.3"/>
<ellipse class="st32" cx="283.2" cy="97.9" rx="1.8" ry="1.5"/>
<ellipse class="st32" cx="329.1" cy="96.8" rx="1.2" ry="1.1"/>
<ellipse class="st32" cx="350.5" cy="134.6" rx="0.8" ry="0.7"/>
<ellipse class="st32" cx="273" cy="87.3" rx="1.3" ry="1.1"/>
<ellipse class="st32" cx="294.7" cy="64.9" rx="0.9" ry="0.8"/>
<ellipse class="st32" cx="329.8" cy="73.2" rx="0.6" ry="0.5"/>
<ellipse class="st32" cx="332" cy="140.1" rx="1.3" ry="1.1"/>
<ellipse class="st32" cx="302.2" cy="126" rx="0.9" ry="0.8"/>
<ellipse class="st32" cx="305.4" cy="95.1" rx="0.6" ry="0.5"/>
<ellipse class="st32" cx="388.5" cy="132" rx="1.3" ry="1.1"/>
<ellipse class="st32" cx="358.8" cy="117.9" rx="0.9" ry="0.8"/>
<ellipse class="st32" cx="361.9" cy="87" rx="0.6" ry="0.5"/>
<ellipse class="st32" cx="481.8" cy="87.2" rx="0.6" ry="0.6"/>
<ellipse class="st32" cx="498.1" cy="86.8" rx="0.4" ry="0.4"/>
<ellipse class="st32" cx="505.7" cy="100.7" rx="0.3" ry="0.3"/>
<ellipse class="st32" cx="478.2" cy="83.2" rx="0.5" ry="0.4"/>
<ellipse class="st32" cx="485.9" cy="75" rx="0.3" ry="0.3"/>
<ellipse class="st32" cx="498.4" cy="78" rx="0.2" ry="0.2"/>
<ellipse class="st32" cx="499.1" cy="102.8" rx="0.5" ry="0.4"/>
<ellipse class="st32" cx="488.6" cy="97.6" rx="0.3" ry="0.3"/>
<ellipse class="st32" cx="489.7" cy="86.1" rx="0.2" ry="0.2"/>
<ellipse class="st32" cx="519.2" cy="99.8" rx="0.5" ry="0.4"/>
<ellipse class="st32" cx="508.7" cy="94.6" rx="0.3" ry="0.3"/>
<ellipse class="st32" cx="509.8" cy="83.1" rx="0.2" ry="0.2"/>
<ellipse class="st32" cx="420.6" cy="87.1" rx="1.6" ry="2.1"/>
<ellipse class="st32" cx="462.3" cy="85.6" rx="1.1" ry="1.4"/>
<ellipse class="st32" cx="481.8" cy="137" rx="0.8" ry="1"/>
<ellipse class="st32" cx="411.3" cy="72.6" rx="1.2" ry="1.5"/>
<ellipse class="st32" cx="431" cy="42.2" rx="0.8" ry="1.1"/>
<ellipse class="st32" cx="463" cy="53.4" rx="0.6" ry="0.7"/>
<ellipse class="st32" cx="464.9" cy="144.5" rx="1.2" ry="1.5"/>
<ellipse class="st32" cx="437.9" cy="125.4" rx="0.8" ry="1.1"/>
<ellipse class="st32" cx="440.7" cy="83.3" rx="0.6" ry="0.7"/>
<ellipse class="st32" cx="516.4" cy="133.5" rx="1.2" ry="1.5"/>
<ellipse class="st32" cx="489.3" cy="114.3" rx="0.8" ry="1.1"/>
<ellipse class="st32" cx="492.2" cy="72.2" rx="0.6" ry="0.7"/>
<ellipse class="st32" cx="311.1" cy="52.3" rx="1.6" ry="2.1"/>
<ellipse class="st32" cx="352.9" cy="50.7" rx="1.1" ry="1.4"/>
<ellipse class="st32" cx="372.4" cy="102.1" rx="0.8" ry="1"/>
<ellipse class="st32" cx="301.9" cy="37.7" rx="1.2" ry="1.5"/>
<ellipse class="st32" cx="321.5" cy="7.3" rx="0.8" ry="1.1"/>
<ellipse class="st32" cx="353.5" cy="18.5" rx="0.6" ry="0.7"/>
<ellipse class="st32" cx="355.5" cy="109.6" rx="1.2" ry="1.5"/>
<ellipse class="st32" cx="328.4" cy="90.5" rx="0.8" ry="1.1"/>
<ellipse class="st32" cx="331.2" cy="48.4" rx="0.6" ry="0.7"/>
<ellipse class="st32" cx="406.9" cy="98.6" rx="1.2" ry="1.5"/>
<ellipse class="st32" cx="379.9" cy="79.5" rx="0.8" ry="1.1"/>
<ellipse class="st32" cx="382.7" cy="37.4" rx="0.6" ry="0.7"/>
<ellipse class="st32" cx="484.4" cy="52.6" rx="1.6" ry="2.1"/>
<ellipse class="st32" cx="526.2" cy="51" rx="1.1" ry="1.4"/>
<ellipse class="st32" cx="545.6" cy="102.4" rx="0.8" ry="1"/>
<ellipse class="st32" cx="475.1" cy="38" rx="1.2" ry="1.5"/>
<ellipse class="st32" cx="494.8" cy="7.6" rx="0.8" ry="1.1"/>
<ellipse class="st32" cx="526.8" cy="18.8" rx="0.6" ry="0.7"/>
<ellipse class="st32" cx="528.7" cy="109.9" rx="1.2" ry="1.5"/>
<ellipse class="st32" cx="501.7" cy="90.8" rx="0.8" ry="1.1"/>
<ellipse class="st32" cx="504.5" cy="48.7" rx="0.6" ry="0.7"/>
<ellipse class="st32" cx="580.2" cy="98.9" rx="1.2" ry="1.5"/>
<ellipse class="st32" cx="553.1" cy="79.8" rx="0.8" ry="1.1"/>
<ellipse class="st32" cx="556" cy="37.7" rx="0.6" ry="0.7"/>
<ellipse class="st32" cx="550.2" cy="31.6" rx="0.9" ry="1.2"/>
<ellipse class="st32" cx="574.1" cy="30.7" rx="0.6" ry="0.8"/>
<ellipse class="st32" cx="585.3" cy="60.1" rx="0.4" ry="0.6"/>
<ellipse class="st32" cx="544.9" cy="23.2" rx="0.7" ry="0.9"/>
<ellipse class="st32" cx="556.2" cy="5.8" rx="0.5" ry="0.6"/>
<ellipse class="st32" cx="574.5" cy="12.2" rx="0.3" ry="0.4"/>
<ellipse class="st32" cx="575.6" cy="64.4" rx="0.7" ry="0.9"/>
<ellipse class="st32" cx="560.1" cy="53.5" rx="0.5" ry="0.6"/>
<ellipse class="st32" cx="561.7" cy="29.3" rx="0.3" ry="0.4"/>
<ellipse class="st32" cx="605.1" cy="58.1" rx="0.7" ry="0.9"/>
<ellipse class="st32" cx="589.6" cy="47.1" rx="0.5" ry="0.6"/>
<ellipse class="st32" cx="591.2" cy="23" rx="0.3" ry="0.4"/>
<ellipse class="st32" cx="408.4" cy="26.5" rx="0.9" ry="1.2"/>
<ellipse class="st32" cx="432.4" cy="25.7" rx="0.6" ry="0.8"/>
<ellipse class="st32" cx="443.5" cy="55.1" rx="0.4" ry="0.6"/>
<ellipse class="st32" cx="403.1" cy="18.2" rx="0.7" ry="0.9"/>
<ellipse class="st32" cx="414.4" cy="0.8" rx="0.5" ry="0.6"/>
<ellipse class="st32" cx="432.7" cy="7.2" rx="0.3" ry="0.4"/>
<ellipse class="st32" cx="433.8" cy="59.4" rx="0.7" ry="0.9"/>
<ellipse class="st32" cx="418.3" cy="48.5" rx="0.5" ry="0.6"/>
<ellipse class="st32" cx="420" cy="24.3" rx="0.3" ry="0.4"/>
<ellipse class="st32" cx="463.3" cy="53.1" rx="0.7" ry="0.9"/>
<ellipse class="st32" cx="447.8" cy="42.1" rx="0.5" ry="0.6"/>
<ellipse class="st32" cx="449.4" cy="18" rx="0.3" ry="0.4"/>
<rect x="69.7" y="48.7" class="st1" width="479.5" height="22.8"/>
<g>
	
		<image style="overflow:visible;opacity:0.79;" width="2306" height="597" xlink:href="C2EE58BE32D4A110.png"  transform="matrix(0.24 0 0 0.24 29.04 -9.84)">
	</image>
	<g>
		<text transform="matrix(1 0 0 1 83.2262 70.8675)" class="st32 st33 st34">MAKE YOUR DREAM A REALITY</text>
	</g>
</g>
<linearGradient id="SVGID_8_" gradientUnits="userSpaceOnUse" x1="9.181" y1="22.3044" x2="46.4672" y2="22.3044">
	<stop  offset="8.360202e-02" style="stop-color:#495D97"/>
	<stop  offset="0.1895" style="stop-color:#555E94"/>
	<stop  offset="0.3787" style="stop-color:#72608D"/>
	<stop  offset="0.6293" style="stop-color:#9C6380"/>
	<stop  offset="0.9286" style="stop-color:#D9636B"/>
	<stop  offset="1" style="stop-color:#EC6366"/>
</linearGradient>
<circle class="st35" cx="27.8" cy="22.3" r="18.6"/>
<g>
	<g>
		<defs>
			<circle id="SVGID_9_" cx="587.2" cy="27.3" r="18.6"/>
		</defs>
		<clipPath id="SVGID_10_">
			<use xlink:href="#SVGID_9_"  style="overflow:visible;"/>
		</clipPath>
		<g class="st36">
			<g>
				<defs>
					<rect id="SVGID_11_" x="563.6" y="3.7" width="47.3" height="47.3"/>
				</defs>
				<clipPath id="SVGID_12_">
					<use xlink:href="#SVGID_11_"  style="overflow:visible;"/>
				</clipPath>
				<g class="st37">
					<defs>
						<rect id="SVGID_13_" x="563.6" y="3.7" width="47.3" height="47.3"/>
					</defs>
					<clipPath id="SVGID_14_">
						<use xlink:href="#SVGID_13_"  style="overflow:visible;"/>
					</clipPath>
					<g style="clip-path:url(#SVGID_14_);">
						
							<image style="overflow:visible;" width="99" height="100" xlink:href="C2EE58BE32D4A110.jpg"  transform="matrix(0.48 0 0 0.48 563.52 3.36)">
						</image>
					</g>
				</g>
			</g>
		</g>
	</g>
</g>
<g>
	<g>
		<linearGradient id="SVGID_15_" gradientUnits="userSpaceOnUse" x1="1.119" y1="22.9335" x2="56.1675" y2="22.9335">
			<stop  offset="8.360202e-02" style="stop-color:#0099C5"/>
			<stop  offset="0.1869" style="stop-color:#2A98BD"/>
			<stop  offset="0.3713" style="stop-color:#6294AE"/>
			<stop  offset="0.6156" style="stop-color:#988894"/>
			<stop  offset="0.9073" style="stop-color:#D57071"/>
			<stop  offset="1" style="stop-color:#EC6366"/>
		</linearGradient>
		<path class="st38" d="M55.3,21.6c-1.5,1.1-13.2,1.9-27.4,1.9c-12.8,0-23.6-0.7-26.7-1.6C1.2,22,1.1,22,1.1,22.1
			c0,1.2,12.3,2.2,27.5,2.2c15.2,0,27.5-1,27.5-2.2C56.2,21.9,55.9,21.7,55.3,21.6z"/>
	</g>
	<g>
		<linearGradient id="SVGID_16_" gradientUnits="userSpaceOnUse" x1="3.4937" y1="24.5842" x2="58.5422" y2="24.5842">
			<stop  offset="8.360202e-02" style="stop-color:#0099C5"/>
			<stop  offset="0.1871" style="stop-color:#239CC0"/>
			<stop  offset="0.3721" style="stop-color:#5CA5B9"/>
			<stop  offset="0.617" style="stop-color:#97B5AC"/>
			<stop  offset="0.9095" style="stop-color:#E1CB92"/>
			<stop  offset="1" style="stop-color:#FFD68A"/>
		</linearGradient>
		<path class="st39" d="M57.7,22.5c-1.5,1.7-13.2,3-27.4,3c-12.8,0-23.6-1.1-26.7-2.5c-0.1,0.1-0.2,0.2-0.2,0.4
			c0,1.9,12.3,3.4,27.5,3.4c15.2,0,27.5-1.5,27.5-3.4C58.5,23,58.2,22.7,57.7,22.5z"/>
	</g>
	<g>
		<linearGradient id="SVGID_17_" gradientUnits="userSpaceOnUse" x1="0.7797" y1="23.9658" x2="55.8283" y2="23.9658">
			<stop  offset="8.360202e-02" style="stop-color:#0099C5"/>
			<stop  offset="0.1869" style="stop-color:#2A98BD"/>
			<stop  offset="0.3713" style="stop-color:#6294AE"/>
			<stop  offset="0.6156" style="stop-color:#988894"/>
			<stop  offset="0.9073" style="stop-color:#D57071"/>
			<stop  offset="1" style="stop-color:#EC6366"/>
		</linearGradient>
		<path class="st40" d="M55,22.6c-1.5,1.1-13.2,1.9-27.4,1.9c-12.8,0-23.6-0.7-26.7-1.6c-0.1,0.1-0.2,0.2-0.2,0.2
			c0,1.2,12.3,2.2,27.5,2.2c15.2,0,27.5-1,27.5-2.2C55.8,23,55.5,22.8,55,22.6z"/>
	</g>
</g>
<g>
	<linearGradient id="SVGID_18_" gradientUnits="userSpaceOnUse" x1="0.7797" y1="28.0646" x2="55.8283" y2="28.0646">
		<stop  offset="8.360202e-02" style="stop-color:#0099C5"/>
		<stop  offset="0.1871" style="stop-color:#239CC0"/>
		<stop  offset="0.3721" style="stop-color:#5CA5B9"/>
		<stop  offset="0.617" style="stop-color:#97B5AC"/>
		<stop  offset="0.9095" style="stop-color:#E1CB92"/>
		<stop  offset="1" style="stop-color:#FFD68A"/>
	</linearGradient>
	<path class="st41" d="M55,25.6c-1.5,2-13.2,3.5-27.4,3.5c-12.8,0-23.6-1.3-26.7-3c-0.1,0.1-0.2,0.3-0.2,0.4c0,2.2,12.3,4,27.5,4
		c15.2,0,27.5-1.8,27.5-4C55.8,26.2,55.5,25.9,55,25.6z"/>
</g>
<g>
	<linearGradient id="SVGID_19_" gradientUnits="userSpaceOnUse" x1="489.9765" y1="543.8683" x2="542.5789" y2="543.8683">
		<stop  offset="6.985781e-03" style="stop-color:#65BC46"/>
		<stop  offset="4.163541e-02" style="stop-color:#64BC49"/>
		<stop  offset="8.913609e-02" style="stop-color:#5FBB55"/>
		<stop  offset="0.1441" style="stop-color:#55BB6A"/>
		<stop  offset="0.2046" style="stop-color:#45BA87"/>
		<stop  offset="0.2689" style="stop-color:#25BAA7"/>
		<stop  offset="0.3239" style="stop-color:#00BAC8"/>
		<stop  offset="0.3643" style="stop-color:#00BAC4"/>
		<stop  offset="0.4161" style="stop-color:#00B8BA"/>
		<stop  offset="0.4741" style="stop-color:#00B4A8"/>
		<stop  offset="0.5365" style="stop-color:#00B092"/>
		<stop  offset="0.6026" style="stop-color:#00AB74"/>
		<stop  offset="0.6708" style="stop-color:#00A652"/>
		<stop  offset="0.6747" style="stop-color:#00A651"/>
		<stop  offset="0.7068" style="stop-color:#00A851"/>
		<stop  offset="0.7534" style="stop-color:#00AC4F"/>
		<stop  offset="0.8084" style="stop-color:#2EB34B"/>
		<stop  offset="0.8587" style="stop-color:#68BD46"/>
	</linearGradient>
	<path class="st42" d="M513.8,513.1l-22.4,30.3c-2.1,2.9-1.8,6.9,0.7,9.4l22.2,22.6c3.9,3.9,10.5,2.3,12.2-2.9l15.9-34.8
		c0.9-2.8,0-5.9-2.3-7.8l-15.7-18.2C521.1,509.1,516.3,509.7,513.8,513.1z"/>
	<linearGradient id="SVGID_20_" gradientUnits="userSpaceOnUse" x1="498.5431" y1="541.6293" x2="538.613" y2="541.6293">
		<stop  offset="0" style="stop-color:#67686A"/>
		<stop  offset="0.5164" style="stop-color:#A6BFCC"/>
		<stop  offset="1" style="stop-color:#637E8C"/>
	</linearGradient>
	<path class="st43" d="M516.1,518.8l-16.5,22.4c-1.6,2.1-1.4,5.1,0.5,7l16.4,16.7c2.9,2.9,7.8,1.7,9-2.2l12.9-26.5
		c0.6-2.1,0-4.3-1.7-5.7l-12.7-12.6C521.6,515.9,518,516.3,516.1,518.8z"/>
	<linearGradient id="SVGID_21_" gradientUnits="userSpaceOnUse" x1="461.8178" y1="579.0677" x2="514.2087" y2="579.0677">
		<stop  offset="6.985781e-03" style="stop-color:#65BC46"/>
		<stop  offset="4.163541e-02" style="stop-color:#64BC49"/>
		<stop  offset="8.913609e-02" style="stop-color:#5FBB55"/>
		<stop  offset="0.1441" style="stop-color:#55BB6A"/>
		<stop  offset="0.2046" style="stop-color:#45BA87"/>
		<stop  offset="0.2689" style="stop-color:#25BAA7"/>
		<stop  offset="0.3239" style="stop-color:#00BAC8"/>
		<stop  offset="0.3643" style="stop-color:#00BAC4"/>
		<stop  offset="0.4161" style="stop-color:#00B8BA"/>
		<stop  offset="0.4741" style="stop-color:#00B4A8"/>
		<stop  offset="0.5365" style="stop-color:#00B092"/>
		<stop  offset="0.6026" style="stop-color:#00AB74"/>
		<stop  offset="0.6708" style="stop-color:#00A652"/>
		<stop  offset="0.6747" style="stop-color:#00A651"/>
		<stop  offset="0.7068" style="stop-color:#00A851"/>
		<stop  offset="0.7534" style="stop-color:#00AC4F"/>
		<stop  offset="0.8084" style="stop-color:#2EB34B"/>
		<stop  offset="0.8587" style="stop-color:#68BD46"/>
	</linearGradient>
	<path class="st44" d="M461.8,601.1c0,0,5.3,0.3,15.9,4.2l36.4-29.9l-22.2-22.6L461.8,601.1z"/>
</g>
<g>
	
		<linearGradient id="SVGID_22_" gradientUnits="userSpaceOnUse" x1="151.8973" y1="327.9006" x2="155.376" y2="327.9006" gradientTransform="matrix(0.9411 -0.3381 0.3381 0.9411 -92.0455 90.9109)">
		<stop  offset="0" style="stop-color:#67686A"/>
		<stop  offset="0.5367" style="stop-color:#000000"/>
		<stop  offset="1" style="stop-color:#637E8C"/>
	</linearGradient>
	<path class="st45" d="M163.5,344.7c0,0-1.3,0.7-0.5,1.6l-1.4,1.3l0.5,1.1l0.8-0.8c0,0,0.2-0.3,0.4-0.1c0.2,0.2,0.2,0.3-0.1,0.7
		l-0.6,0.7l0.3,1.1l0.4,0c0,0,0.2,0.4,0.3-0.3l0.6-1.3c0,0,0.1,1.3,1.5,0.1L163.5,344.7z"/>
	
		<linearGradient id="SVGID_23_" gradientUnits="userSpaceOnUse" x1="154.5865" y1="326.08" x2="171.3885" y2="326.08" gradientTransform="matrix(0.9411 -0.3381 0.3381 0.9411 -92.0455 90.9109)">
		<stop  offset="6.985781e-03" style="stop-color:#65BC46"/>
		<stop  offset="4.163541e-02" style="stop-color:#64BC49"/>
		<stop  offset="8.913609e-02" style="stop-color:#5FBB55"/>
		<stop  offset="0.1441" style="stop-color:#55BB6A"/>
		<stop  offset="0.2046" style="stop-color:#45BA87"/>
		<stop  offset="0.2689" style="stop-color:#25BAA7"/>
		<stop  offset="0.3239" style="stop-color:#00BAC8"/>
		<stop  offset="0.3643" style="stop-color:#00BAC4"/>
		<stop  offset="0.4161" style="stop-color:#00B8BA"/>
		<stop  offset="0.4741" style="stop-color:#00B4A8"/>
		<stop  offset="0.5365" style="stop-color:#00B092"/>
		<stop  offset="0.6026" style="stop-color:#00AB74"/>
		<stop  offset="0.6708" style="stop-color:#00A652"/>
		<stop  offset="0.6747" style="stop-color:#00A651"/>
		<stop  offset="0.7068" style="stop-color:#00A851"/>
		<stop  offset="0.7534" style="stop-color:#00AC4F"/>
		<stop  offset="0.8084" style="stop-color:#2EB34B"/>
		<stop  offset="0.8587" style="stop-color:#68BD46"/>
	</linearGradient>
	<path class="st46" d="M162.6,341.8c0,0-0.6-2.3,0.8-3.6c0,0,2.4-4.7,3.5-4.3c0,0-2.4,2-1.2,4.7l3.8,7.2c0,0,2.9,3.6,6.6,2.8
		l0.4,0.4c0,0,1,0.4,1-0.4l0.1-0.3c0,0,0.9-0.4,1.3,0.1s3.3-0.2,3.5-0.3c0.1,0-0.3,0.6,0.1,1c0.6,0.6-3.2,0.9-5.1,1.2l-5.3,1.7
		c0,0-3.6,0.7-5.2-1.3C165.4,348.6,162.5,343.5,162.6,341.8z"/>
	
		<linearGradient id="SVGID_24_" gradientUnits="userSpaceOnUse" x1="156.7306" y1="322.431" x2="156.2838" y2="330.055" gradientTransform="matrix(0.9411 -0.3381 0.3381 0.9411 -92.0455 90.9109)">
		<stop  offset="0" style="stop-color:#67686A"/>
		<stop  offset="0.5367" style="stop-color:#000000"/>
		<stop  offset="1" style="stop-color:#637E8C"/>
	</linearGradient>
	<path class="st47" d="M163,345.8l1.2-2c0,0-1.1-4,2.8-2.3c0,0,3.2,5.9-0.6,5.7l-1,1.4c0,0-0.3,0.9-1.2-0.4L163,345.8z"/>
	
		<linearGradient id="SVGID_25_" gradientUnits="userSpaceOnUse" x1="154.6422" y1="325.3065" x2="156.8917" y2="325.3065" gradientTransform="matrix(0.9411 -0.3381 0.3381 0.9411 -92.0455 90.9109)">
		<stop  offset="0" style="stop-color:#67686A"/>
		<stop  offset="0.5164" style="stop-color:#A6BFCC"/>
		<stop  offset="1" style="stop-color:#637E8C"/>
	</linearGradient>
	
		<ellipse transform="matrix(0.9411 -0.3381 0.3381 0.9411 -106.7547 75.9187)" class="st48" cx="164.5" cy="344.4" rx="0.6" ry="1.4"/>
	
		<linearGradient id="SVGID_26_" gradientUnits="userSpaceOnUse" x1="156.7675" y1="323.9536" x2="156.5726" y2="327.2792" gradientTransform="matrix(0.9411 -0.3381 0.3381 0.9411 -92.0455 90.9109)">
		<stop  offset="0" style="stop-color:#67686A"/>
		<stop  offset="0.5367" style="stop-color:#A6BFCC"/>
		<stop  offset="1" style="stop-color:#637E8C"/>
	</linearGradient>
	<path class="st49" d="M164.2,342.9l1.2-0.1c0.1,0,0.3,0,0.3,0.2c0.3,0.6,0.9,2.1,0.5,2.7l-1.2,0
		C165.5,345.5,165.4,343.6,164.2,342.9z"/>
	
		<linearGradient id="SVGID_27_" gradientUnits="userSpaceOnUse" x1="172.8084" y1="316.3577" x2="171.6424" y2="336.2555" gradientTransform="matrix(0.9411 -0.3381 0.3381 0.9411 -92.0455 90.9109)">
		<stop  offset="0" style="stop-color:#67686A"/>
		<stop  offset="0.5367" style="stop-color:#000000"/>
		<stop  offset="1" style="stop-color:#637E8C"/>
	</linearGradient>
	<path class="st50" d="M187.9,329.1c0,0-8.6,1-17,3.2c0,0-4.5,0.6-4.9,3.2c0,0-1.6,1.2,0.3,4.2l3.3,6.1c0,0,2.9,4.2,6.6,2.7
		c0,0,0.9,1.4,1.5-0.2c0,0,0.5-0.7,1.4,0c0.9,0.7,3.5-0.4,3.5-0.4s-0.9,2,2.7,0.9c3.5-1.1,1.8-1.8,1.8-1.8l3.2-0.7
		c0,0,0.6,0-0.5-1.5l0.6,0.4c0,0,2.4-0.9,3-1.4c0.6-0.4,0.3-0.8,0.3-0.8s3-1.3-0.6-7.5S191.1,331.3,187.9,329.1z"/>
	<path class="st51" d="M172,333.5c0,0-5.1,0.3-3,4.3c0,0,2.8,9.7,7.7,8.2l15.9-3.8c0,0,2.1-0.8,1-2.8c0,0-3-7.2-3.5-7.2
		c0,0-1.5-2.7-5.5-1.6L172,333.5z"/>
	
		<linearGradient id="SVGID_28_" gradientUnits="userSpaceOnUse" x1="142.0697" y1="331.5739" x2="152.7921" y2="331.5739" gradientTransform="matrix(0.9411 -0.3381 0.3381 0.9411 -92.0455 90.9109)">
		<stop  offset="6.985781e-03" style="stop-color:#65BC46"/>
		<stop  offset="4.163541e-02" style="stop-color:#64BC49"/>
		<stop  offset="8.913609e-02" style="stop-color:#5FBB55"/>
		<stop  offset="0.1441" style="stop-color:#55BB6A"/>
		<stop  offset="0.2046" style="stop-color:#45BA87"/>
		<stop  offset="0.2689" style="stop-color:#25BAA7"/>
		<stop  offset="0.3239" style="stop-color:#00BAC8"/>
		<stop  offset="0.3643" style="stop-color:#00BAC4"/>
		<stop  offset="0.4161" style="stop-color:#00B8BA"/>
		<stop  offset="0.4741" style="stop-color:#00B4A8"/>
		<stop  offset="0.5365" style="stop-color:#00B092"/>
		<stop  offset="0.6026" style="stop-color:#00AB74"/>
		<stop  offset="0.6708" style="stop-color:#00A652"/>
		<stop  offset="0.6747" style="stop-color:#00A651"/>
		<stop  offset="0.7068" style="stop-color:#00A851"/>
		<stop  offset="0.7534" style="stop-color:#00AC4F"/>
		<stop  offset="0.8084" style="stop-color:#2EB34B"/>
		<stop  offset="0.8587" style="stop-color:#68BD46"/>
	</linearGradient>
	<polygon class="st52" points="160.9,345.6 164.2,352.1 157.1,360.5 154.4,356.6 	"/>
</g>
</svg>
