<svg id="Layer_1" data-name="Layer 1" xmlns="http://www.w3.org/2000/svg" xmlns:xlink="http://www.w3.org/1999/xlink" viewBox="0 0 502.47 197.11"><defs><style>.cls-1{fill:url(#linear-gradient);}.cls-2{fill:url(#linear-gradient-2);}.cls-3{fill:url(#linear-gradient-3);}.cls-4{fill:url(#linear-gradient-4);}.cls-5{fill:url(#linear-gradient-5);}.cls-6{fill:url(#linear-gradient-6);}.cls-7{fill:url(#linear-gradient-7);}.cls-8{font-size:60.62px;fill:#3a3a3a;font-family:Roboto-Bold, Roboto;font-weight:700;}</style><linearGradient id="linear-gradient" x1="192.77" y1="142.37" x2="193.68" y2="102.14" gradientUnits="userSpaceOnUse"><stop offset="0.01" stop-color="#724f9f"/><stop offset="1" stop-color="#1e5c9f"/></linearGradient><linearGradient id="linear-gradient-2" x1="493.06" y1="149.2" x2="493.98" y2="108.96" xlink:href="#linear-gradient"/><linearGradient id="linear-gradient-3" x1="304.24" y1="144.91" x2="305.16" y2="104.67" xlink:href="#linear-gradient"/><linearGradient id="linear-gradient-4" x1="88.41" y1="140" x2="89.32" y2="99.77" xlink:href="#linear-gradient"/><linearGradient id="linear-gradient-5" x1="416.83" y1="147.47" x2="417.75" y2="107.23" xlink:href="#linear-gradient"/><linearGradient id="linear-gradient-6" x1="494.09" y1="149.22" x2="495" y2="108.99" xlink:href="#linear-gradient"/><linearGradient id="linear-gradient-7" x1="193.79" y1="142.4" x2="194.71" y2="102.16" xlink:href="#linear-gradient"/></defs><title>MIMPYlogo</title><path class="cls-1" d="M210.26,60.76a5.31,5.31,0,0,1,0,.69,15.78,15.78,0,0,1-15.68,15.68,14.68,14.68,0,0,1-3.9-.5,15,15,0,0,1-6.88-3.85,15.51,15.51,0,0,1-4.91-11.33,2.8,2.8,0,0,1,0-.5,15.67,15.67,0,0,1,31.31-.19Z" transform="translate(-24.07 -45.77)"/><path class="cls-2" d="M510.71,60.76a5.31,5.31,0,0,1,0,.69,15.78,15.78,0,0,1-15.68,15.68,14.74,14.74,0,0,1-3.9-.5,15,15,0,0,1-6.88-3.85,15.51,15.51,0,0,1-4.91-11.33,2.8,2.8,0,0,1,0-.5,15.67,15.67,0,0,1,31.31-.19Z" transform="translate(-24.07 -45.77)"/><path class="cls-3" d="M332.28,77.13a36.71,36.71,0,0,0-27.72,12.64A36.8,36.8,0,0,0,240,112.64c0,.16,0,35.44,0,35.6h18.51c0-.19,0-35.5,0-35.69a18.34,18.34,0,0,1,36.55-.24c0,.26,0,35.73,0,36H314c0-.18,0-35.56,0-35.75a18.34,18.34,0,0,1,36.55-.18c0,.24,0,36.17.05,36.42h18.5c0-.23,0-36.14,0-36.36A36.85,36.85,0,0,0,332.28,77.13Z" transform="translate(-24.07 -45.77)"/><path class="cls-4" d="M116.34,77.13A36.75,36.75,0,0,0,88.61,89.77a36.8,36.8,0,0,0-64.53,22.87c0,.16,0,35.44,0,35.6h18.5c0-.19,0-35.5,0-35.69a18.33,18.33,0,0,1,36.54-.24c0,.26,0,35.73.06,36H98c0-.18,0-35.56,0-35.75a18.34,18.34,0,0,1,36.56-.18c0,.24,0,36.17,0,36.42h18.51c0-.23,0-36.14,0-36.36A36.86,36.86,0,0,0,116.34,77.13Z" transform="translate(-24.07 -45.77)"/><path class="cls-5" d="M417.6,79.51a34.7,34.7,0,0,0-34.66,34.64c0,.75,0,1.47.09,2.2V174h17.39V144.2a34.08,34.08,0,0,0,17.18,4.58,34.64,34.64,0,1,0,0-69.27Zm0,51.88a17.31,17.31,0,0,1-17.18-15.48,17,17,0,0,1-.09-1.76,17.26,17.26,0,1,1,17.27,17.24Z" transform="translate(-24.07 -45.77)"/><path class="cls-6" d="M526.54,113.23c0-.66-.12-35.64-.12-35.64H510.67s.08,36.2.08,36.44a15.78,15.78,0,0,1-15.68,15.68,14.79,14.79,0,0,1-3.9-.5,15.06,15.06,0,0,1-6.88-3.85,15.49,15.49,0,0,1-4.9-11.33c0-.16.26-36.39.26-36.39l-16.06.11s0,35.36,0,36.28a31.52,31.52,0,0,0,27.6,31.26,31.18,31.18,0,0,0,3.9.24c5.77,0,16.1-4.43,15.79-4.25A15.65,15.65,0,0,1,484,151.66H465.68a31.31,31.31,0,0,0,60.72-10.95C526.4,139.63,526.54,113.23,526.54,113.23Z" transform="translate(-24.07 -45.77)"/><path class="cls-7" d="M226.09,113.23c0-.66-.12-35.64-.12-35.64H210.21s.09,36.2.09,36.44a15.78,15.78,0,0,1-15.68,15.68,14.79,14.79,0,0,1-3.9-.5,15.06,15.06,0,0,1-6.88-3.85,15.49,15.49,0,0,1-4.9-11.33c0-.16.26-36.39.26-36.39l-16.07.11s0,35.36,0,36.28a31.52,31.52,0,0,0,27.6,31.26,31.18,31.18,0,0,0,3.9.24c5.77,0,16.1-4.43,15.79-4.25a15.65,15.65,0,0,1-26.89,10.39H165.23A31.31,31.31,0,0,0,226,140.71C226,139.63,226.09,113.23,226.09,113.23Z" transform="translate(-24.07 -45.77)"/><text class="cls-8" transform="translate(293.78 180.68)">dreams</text></svg>