<?xml version="1.0" encoding="UTF-8"?>
<svg width="77px" height="113px" viewBox="0 0 77 113" version="1.1" xmlns="http://www.w3.org/2000/svg" xmlns:xlink="http://www.w3.org/1999/xlink">
    <!-- Generator: sketchtool 53.2 (72643) - https://sketchapp.com -->
    <title>3C3E8FF4-7650-4426-9AAE-33B96AE4A6EF</title>
    <desc>Created with sketchtool.</desc>
    <defs>
        <polygon id="path-1" points="0.0233518635 0.0919918571 4.55787626 0.0919918571 4.55787626 23 0.0233518635 23"></polygon>
    </defs>
    <g id="Combine-artboards" stroke="none" stroke-width="1" fill="none" fill-rule="evenodd">
        <g id="Home-v2" transform="translate(-1355.000000, -2916.000000)">
            <g id="rocket" transform="translate(1355.000000, 2916.000000)">
                <g id="Group-14">
                    <path d="M37.5,59 C35.9284147,59 35.0982812,60.2544334 35.0091424,62.7633002 L35,63.7802768 C35,65.1359213 35.2111903,66.1786873 35.6340282,66.9071151 C36.056866,67.6355428 36.6844944,68 37.5178278,68 C38.309563,68 38.9193637,67.6423551 39.3481441,66.9260921 C39.7764674,66.2098292 39.9940574,65.1806877 40,63.837208 L40,63.2007461 C40,61.8261246 39.7842384,60.7818988 39.3527153,60.069042 C38.9207351,59.3561851 38.3036204,59 37.5,59" id="Fill-1" fill="#012345"></path>
                    <path d="M51.1320271,60 L49,60 L49,64 L51.095638,64 C51.7151854,64 52.187777,63.838108 52.5124796,63.514324 C52.8371822,63.19054 53,62.7331464 53,62.1431184 C53,61.4950628 52.8329834,60.9776911 52.4989503,60.5905157 C52.1649172,60.2033402 51.7091206,60.0063391 51.1320271,60" id="Fill-3" fill="#012345"></path>
                    <path d="M55.218145,65.1893893 C54.2386253,66.0050059 52.8939445,66.4128142 51.1845961,66.4128142 L49.025705,66.4128142 L49.025705,71.1537089 L45.6430309,71.1537089 L45.6430309,57.1811147 L51.242331,57.1811147 C52.3156084,57.1811147 53.265027,57.3781401 54.090587,57.7712084 C54.916147,58.164768 55.5556723,58.7248903 56.0086693,59.4505926 C56.4616664,60.1767862 56.6881649,61.0007556 56.6881649,61.9220093 C56.6881649,63.2844822 56.1976648,64.3737726 55.218145,65.1893893 L55.218145,65.1893893 Z M43.8986468,64.4553343 C43.8986468,65.8178072 43.6445145,67.0235441 43.1372367,68.0730363 C42.6294655,69.1225286 41.9080258,69.9297926 40.973411,70.4963022 C40.0383027,71.0623205 38.9734142,71.3453296 37.778252,71.3453296 C36.5830899,71.3453296 35.523136,71.0721472 34.5978969,70.5247996 C33.6726578,69.9779434 32.9512181,69.1957376 32.4340711,68.1786734 C31.9169241,67.1616093 31.6450272,65.9941965 31.6198607,64.6759438 L31.6198607,63.889316 C31.6198607,62.5199644 31.8715258,61.3122622 32.3763362,60.2662092 C32.8806532,59.2206476 33.6035733,58.4128924 34.5446031,57.8434347 C35.4861264,57.2739771 36.5579234,56.9894939 37.759007,56.9894939 C38.9477542,56.9894939 40.0082016,57.271029 40.9393622,57.833608 C41.8710162,58.3966783 42.5959102,59.1980462 43.1130572,60.2377118 C43.6302041,61.2773773 43.8922318,62.4688655 43.8986468,63.8121763 L43.8986468,64.4553343 Z M26.9709661,35.6625924 C27.0612695,28.5962077 32.3442612,23.997309 38.5243648,23.9815862 C44.4972148,23.9663549 50.0042378,28.2562036 50.1073711,36.0040705 C50.1932333,42.5068936 44.841157,47.9744732 38.5401556,47.9956006 C32.1123346,48.0177107 26.9798484,42.5466918 26.9709661,35.6625924 L26.9709661,35.6625924 Z M30.8584506,59.7817526 L26.6467624,59.7817526 L26.6467624,71.1537089 L23.2635948,71.1537089 L23.2635948,59.7817526 L19.1288865,59.7817526 L19.1288865,57.1811147 L30.8584506,57.1811147 L30.8584506,59.7817526 Z M67.6281917,49.1811928 C66.8771443,48.6485853 66.629427,48.0909197 66.6274531,47.2409096 C66.6136362,40.7341558 65.4850913,34.4209881 63.1342438,28.347592 C59.7466352,19.5949444 54.3526147,12.2308104 47.1944718,6.18640317 C44.5401459,3.94542272 41.5892501,2.05181635 38.774056,0 L38.3215524,0 C36.0792663,1.56490303 33.7368077,3.00549823 31.6124588,4.71534519 C21.0321649,13.2301865 13.8932669,23.9275394 11.3514502,37.3680174 C10.735611,40.6255706 10.660605,43.9892523 10.4237438,47.3096965 C10.3660089,48.1164691 10.2401763,48.6485853 9.50442623,49.1526953 C-0.825189542,56.2421729 -1.80717661,68.3373747 2.15383355,76.2090581 C4.37440733,80.6222321 7.68849034,84.0325906 12.2021766,86.1929921 C13.6583796,86.8901969 15.178239,87.2822825 16.7829736,86.7334609 C18.2006866,86.248513 18.5219296,85.4658158 18.6600987,84.0286599 C18.8476138,82.0760933 19.3391008,80.1525155 19.7610098,77.8904076 C20.4661653,78.8883097 20.9507439,79.6317 21.4925639,80.3293962 C22.8732673,82.1085214 24.2519969,83.8901034 25.686981,85.6250084 C26.512541,86.6229105 27.5453546,87.0503722 28.9531983,86.9751979 C31.5073517,86.837624 34.0753219,86.9845333 36.6383575,86.989938 C40.7449386,86.998782 44.8520132,87.0199094 48.9571139,86.9506311 C49.5630838,86.9403131 50.3348566,86.6179971 50.7315991,86.1757953 C52.3832125,84.3342705 53.9356403,82.403814 55.4925093,80.4797448 C56.0762734,79.7574819 56.5722016,78.9639753 57.1081001,78.2028969 C57.2206091,78.2014229 57.3321313,78.1999489 57.4446404,78.1984749 C57.782661,80.2586439 58.2090112,82.3104603 58.4286013,84.3829127 C58.5712114,85.7306455 59.3444646,86.8223926 60.9546273,86.8739828 C62.1532437,86.912307 63.4929899,86.7703111 64.5509699,86.2593223 C71.203809,83.0494286 75.3577623,77.8417654 76.7789295,70.5567364 C76.8282756,70.3051727 76.924994,70.0634358 77,69.8167854 L77,64.4116054 C76.6165809,62.8599684 76.3249456,61.2788513 75.8324717,59.7620992 C74.3747883,55.2708029 71.4263598,51.8737104 67.6281917,49.1811928 L67.6281917,49.1811928 Z" id="Fill-5" fill="#012345"></path>
                    <g id="Group-9" transform="translate(36.000000, 90.000000)">
                        <mask id="mask-2" fill="white">
                            <use xlink:href="#path-1"></use>
                        </mask>
                        <g id="Clip-8"></g>
                        <path d="M4.54809091,2.9422 C4.53627273,1.1937 3.66354545,0.1092 2.32127273,0.0922 C0.918545455,0.0747 0.0435454545,1.1617 0.0303636364,2.9782 C0.0167272727,4.8462 0.0271818182,6.7142 0.0271818182,8.5822 C0.0271818182,12.4322 0.0180909091,16.2822 0.0317272727,20.1322 C0.0385454545,22.0372 0.888090909,23.0362 2.40990909,22.9992 C3.71718182,22.9667 4.53763636,21.9267 4.54809091,20.2102 C4.55672727,18.7807 4.55809091,17.3512 4.55718182,15.9222 C4.55581818,14.4922 4.55263636,13.0627 4.55263636,11.6332 C4.55263636,10.1847 4.55627273,8.7357 4.55763636,7.2877 C4.55854545,5.8392 4.55718182,4.3902 4.54809091,2.9422 Z" id="Fill-7" fill="#FFD164" mask="url(#mask-2)"></path>
                    </g>
                    <path d="M32.9788674,92.3876244 C32.9513731,91.0281169 31.7945376,89.9778387 30.4633987,90.0003553 C29.1208471,90.0218713 28.021594,91.0811562 28.0153689,92.4481692 C27.995656,96.4576404 27.9935809,100.467112 28.0169251,104.477083 C28.0252253,105.993207 29.0425143,106.991947 30.4774052,106.999953 C31.9844039,107.007958 32.9778299,106.002714 32.9897614,104.416538 C33.0048054,102.430566 32.9933927,100.445095 32.9933927,98.4591235 L32.9892426,98.4591235 C32.9892426,96.4351237 33.0193307,94.4106235 32.9788674,92.3876244" id="Fill-10" fill="#F03A48"></path>
                    <path d="M48.963541,96.4726701 C48.963541,95.0409866 49.0229959,93.6059343 48.9461146,92.1776194 C48.8738462,90.8368898 47.8574754,89.9956855 46.5053896,90.0000166 C45.1358774,90.0043478 44.0539013,90.9466121 44.0339122,92.2926353 C43.9929088,95.0467614 43.982658,97.8028125 44.0395501,100.555976 C44.0692776,102.013647 45.2599126,103.048309 46.6535143,102.99826 C47.931794,102.95158 48.9379139,101.930874 48.9794299,100.549239 C49.0199207,99.1911846 48.9881431,97.8316868 48.9881431,96.4731514 C48.9799424,96.4726701 48.9717417,96.4726701 48.963541,96.4726701" id="Fill-12" fill="#F03A48"></path>
                </g>
            </g>
        </g>
    </g>
</svg>